<?xml version="1.0" encoding="UTF-8" standalone="no"?>
<!-- Created with Inkscape (http://www.inkscape.org/) -->

<svg
   xmlns:dc="http://purl.org/dc/elements/1.1/"
   xmlns:cc="http://creativecommons.org/ns#"
   xmlns:rdf="http://www.w3.org/1999/02/22-rdf-syntax-ns#"
   xmlns:svg="http://www.w3.org/2000/svg"
   xmlns="http://www.w3.org/2000/svg"
   xmlns:sodipodi="http://sodipodi.sourceforge.net/DTD/sodipodi-0.dtd"
   xmlns:inkscape="http://www.inkscape.org/namespaces/inkscape"
   width="512"
   height="256"
   viewBox="0 0 135.46666 67.733334"
   version="1.1"
   id="svg8"
   inkscape:version="0.92.4 (5da689c313, 2019-01-14)"
   sodipodi:docname="nature.svg">
  <defs
     id="defs2" />
  <sodipodi:namedview
     id="base"
     pagecolor="#ffffff"
     bordercolor="#666666"
     borderopacity="1.0"
     inkscape:pageopacity="0.0"
     inkscape:pageshadow="2"
     inkscape:zoom="1.65625"
     inkscape:cx="175.8249"
     inkscape:cy="106.4929"
     inkscape:document-units="mm"
     inkscape:current-layer="layer1"
     showgrid="false"
     inkscape:window-width="1920"
     inkscape:window-height="1017"
     inkscape:window-x="-8"
     inkscape:window-y="-8"
     inkscape:window-maximized="1"
     units="px" />
  <metadata
     id="metadata5">
    <rdf:RDF>
      <cc:Work
         rdf:about="">
        <dc:format>image/svg+xml</dc:format>
        <dc:type
           rdf:resource="http://purl.org/dc/dcmitype/StillImage" />
        <dc:title></dc:title>
      </cc:Work>
    </rdf:RDF>
  </metadata>
  <g
     inkscape:label="Laag 1"
     inkscape:groupmode="layer"
     id="layer1"
     transform="translate(0,-229.26666)">
    <g
       transform="matrix(0.12858151,0,0,0.12858151,-0.65771712,230.86387)"
       id="g271">
      <polygon
         style="fill:#7c532a"
         points="201.334,504.115 221.834,420.013 290.167,420.013 310.667,504.115 "
         id="polygon201" />
      <polygon
         style="fill:#6e4013"
         points="238.917,420.013 221.834,420.013 201.334,504.115 218.417,504.115 "
         id="polygon203" />
      <polygon
         style="fill:#8b6642"
         points="204.751,432.628 225.251,352.731 286.751,352.731 307.251,432.628 "
         id="polygon205" />
      <g
         id="g211">
        <polygon
           style="fill:#7c532a"
           points="242.334,352.731 225.251,352.731 204.751,432.628 221.834,432.628 "
           id="polygon207" />
        <polygon
           style="fill:#7c532a"
           points="208.167,369.551 228.667,298.064 283.334,298.064 303.834,369.551 "
           id="polygon209" />
      </g>
      <polygon
         style="fill:#6e4013"
         points="245.751,298.064 228.667,298.064 208.167,369.551 225.251,369.551 "
         id="polygon213" />
      <polygon
         style="fill:#8b6642"
         points="211.584,310.679 232.084,239.192 279.917,239.192 300.417,310.679 "
         id="polygon215" />
      <g
         id="g221">
        <polygon
           style="fill:#7c532a"
           points="249.167,239.192 232.084,239.192 211.584,310.679 228.667,310.679 "
           id="polygon217" />
        <polygon
           style="fill:#7c532a"
           points="211.584,256.013 245.751,184.526 266.251,184.526 300.417,256.013 "
           id="polygon219" />
      </g>
      <polygon
         style="fill:#6e4013"
         points="262.834,184.526 245.751,184.526 211.584,256.013 228.667,256.013 "
         id="polygon223" />
      <polygon
         style="fill:#8b6642"
         points="218.417,205.551 249.167,134.064 262.834,134.064 293.584,205.551 "
         id="polygon225" />
      <polygon
         style="fill:#7c532a"
         points="249.167,134.064 218.417,205.551 235.501,205.551 264.542,138.036 262.834,134.064 "
         id="polygon227" />
      <path
         inkscape:connector-curvature="0"
         style="fill:#8eb845"
         d="m 381.768,177.246 c 37.249,28.493 54.85,73.142 50.51,116.613 6.05,-5.148 11.653,-11.006 16.675,-17.571 C 487.05,226.484 477.56,155.224 427.756,117.126 377.952,79.028 306.692,88.519 268.594,138.323 c -5.022,6.566 -9.209,13.507 -12.594,20.693 40.821,-15.566 88.519,-10.264 125.768,18.23 z"
         id="path229" />
      <g
         id="g235">
        <path
           inkscape:connector-curvature="0"
           style="fill:#b4d46a"
           d="M 130.232,177.246 C 92.983,205.739 75.382,250.388 79.722,293.859 73.672,288.711 68.069,282.853 63.047,276.288 24.95,226.484 34.44,155.224 84.244,117.126 c 49.804,-38.098 121.064,-28.607 159.162,21.197 5.022,6.566 9.209,13.507 12.594,20.693 -40.821,-15.566 -88.519,-10.264 -125.768,18.23 z"
           id="path231" />
        <path
           inkscape:connector-curvature="0"
           style="fill:#b4d46a"
           d="m 342.888,75.312 c 41.74,-12.78 84.919,-4.258 117.859,19.348 -0.706,-3.551 -1.598,-7.1 -2.681,-10.637 C 440.67,27.212 380.513,-4.742 323.702,12.654 266.891,30.05 234.937,90.207 252.334,147.019 c 1.083,3.537 2.332,6.976 3.735,10.314 14.074,-38.001 45.079,-69.24 86.819,-82.021 z"
           id="path233" />
      </g>
      <path
         inkscape:connector-curvature="0"
         style="fill:#8eb845"
         d="M 169.113,75.312 C 127.373,62.532 84.194,71.054 51.254,94.66 c 0.706,-3.551 1.598,-7.1 2.681,-10.637 17.396,-56.811 77.553,-88.765 134.364,-71.369 56.811,17.396 88.765,77.553 71.368,134.365 -1.083,3.537 -2.332,6.976 -3.735,10.314 -14.075,-38.001 -45.079,-69.24 -86.819,-82.021 z"
         id="path237" />
      <path
         inkscape:connector-curvature="0"
         d="M 432.547,110.863 C 418.055,99.777 401.72,92.254 383.995,88.503 c -4.259,-0.901 -8.444,1.821 -9.347,6.082 -0.901,4.26 1.821,8.445 6.082,9.346 15.411,3.262 29.622,9.808 42.236,19.457 46.272,35.396 55.121,101.838 19.725,148.11 -0.659,0.861 -1.332,1.714 -2.017,2.555 -1.886,-40.456 -21.286,-77.956 -54.116,-103.069 -32.829,-25.112 -74.096,-34.023 -113.64,-25.254 0.634,-0.882 1.279,-1.754 1.939,-2.616 19.729,-25.792 49.69,-40.9 82.199,-41.452 4.354,-0.074 7.824,-3.664 7.75,-8.017 -0.074,-4.353 -3.677,-7.815 -8.017,-7.75 -10.28,0.175 -20.336,1.623 -29.989,4.239 5.907,-2.879 12.046,-5.337 18.396,-7.282 38.084,-11.662 78.528,-5.021 110.956,18.218 3.49,2.502 8.609,1.593 11.069,-1.916 1.761,-2.513 1.424,-5.385 0.801,-8.217 -0.683,-3.104 -1.488,-6.182 -2.419,-9.221 C 456.574,52.225 436.6,28.017 409.362,13.549 382.125,-0.92 350.883,-3.913 321.39,5.115 293.864,13.543 270.605,31.939 256.003,56.434 241.318,31.713 218.289,13.591 190.606,5.115 161.114,-3.914 129.872,-0.92 102.635,13.547 75.397,28.015 55.424,52.224 46.394,81.714 c -0.873,2.849 -1.636,5.731 -2.288,8.637 -0.561,2.504 -1.161,4.92 -0.112,7.385 1.944,4.572 7.805,6.234 11.851,3.333 18.312,-13.123 39.793,-21.164 62.119,-23.255 4.335,-0.406 7.521,-4.249 7.116,-8.586 -0.407,-4.337 -4.267,-7.529 -8.586,-7.115 -18.069,1.692 -35.646,6.85 -51.752,15.107 8.828,-21.329 24.641,-38.779 45.29,-49.747 23.518,-12.492 50.493,-15.079 75.956,-7.28 25.463,7.797 46.366,25.043 58.857,48.561 10.96,20.632 14.294,43.928 9.682,66.526 -17.717,-32.381 -47.117,-56.486 -83.11,-67.507 -9.21,-2.82 -18.699,-4.713 -28.204,-5.626 -4.342,-0.424 -8.186,2.76 -8.604,7.094 -0.417,4.334 2.76,8.186 7.094,8.603 8.453,0.813 16.896,2.498 25.096,5.008 6.629,2.03 13,4.57 19.086,7.561 C 150.411,80.546 110.88,86.821 79.448,110.865 26.273,151.543 16.104,227.902 56.782,281.08 c 5.255,6.871 11.254,13.191 17.829,18.786 5.303,4.513 13.642,0.101 12.955,-6.788 -4.255,-42.623 13.485,-83.583 47.455,-109.568 27.361,-20.928 61.338,-29.142 94.437,-23.577 l -18.284,42.505 c -2.202,5.118 1.682,11 7.243,11 h 4.777 l -18.724,39.177 c -2.461,5.147 1.427,11.284 7.114,11.284 h 5.213 l -12.792,44.609 c -1.422,4.959 2.424,10.058 7.579,10.058 h 3.002 l -13.998,48.814 c -1.422,4.959 2.424,10.058 7.579,10.058 h 2.604 l -13.658,53.233 c -1.262,4.913 2.574,9.844 7.638,9.844 h 3.971 l -15.048,61.735 c -1.191,4.888 2.635,9.752 7.661,9.752 h 109.333 c 5.026,0 8.852,-4.863 7.661,-9.752 l -15.048,-61.735 h 3.971 c 5.063,0 8.898,-4.932 7.638,-9.844 l -13.658,-53.233 h 2.605 c 5.154,0 9.001,-5.099 7.579,-10.058 l -13.998,-48.814 h 3.002 c 5.154,0 9.001,-5.099 7.579,-10.058 l -12.792,-44.609 h 5.213 c 5.689,0 9.575,-6.138 7.114,-11.284 L 288.81,213.438 h 4.777 c 5.56,0 9.445,-5.882 7.243,-11 l -18.284,-42.506 c 33.099,-5.564 67.076,2.65 94.437,23.578 33.97,25.984 51.709,66.945 47.455,109.568 -0.688,6.89 7.651,11.3 12.955,6.788 6.575,-5.594 12.573,-11.914 17.829,-18.786 40.672,-53.179 30.503,-129.538 -22.675,-170.217 z M 326.01,20.193 c 25.459,-7.797 52.436,-5.212 75.956,7.28 20.634,10.96 36.438,28.393 45.271,49.699 C 414.428,60.263 376.573,56.751 340.579,67.771 313.706,75.999 289.984,91.973 272.3,113.466 272.076,100.029 269.479,86.702 264.558,74.005 276.424,48.131 298.805,28.523 326.01,20.193 Z m -200.569,150.79 c -32.829,25.113 -52.23,62.612 -54.116,103.069 -0.685,-0.841 -1.358,-1.693 -2.017,-2.555 -35.395,-46.272 -26.546,-112.714 19.725,-148.11 19.121,-14.625 41.677,-21.695 64.07,-21.695 31.801,0 63.269,14.269 84.038,41.42 0.659,0.861 1.305,1.734 1.938,2.616 -39.537,-8.767 -80.81,0.143 -113.638,25.255 z M 300.63,496.23 h -89.259 l 13.581,-55.718 h 62.096 z m -3.542,-71.487 h -82.174 l 12.138,-47.308 h 57.898 z m -3.719,-63.076 h -74.74 l 12.36,-43.103 h 50.02 z m -3.416,-58.872 h -67.906 l 11.154,-38.897 H 278.8 Z m -2.044,-54.667 h -63.818 l 16.58,-34.692 h 30.658 z m -6.3,-50.461 h -51.217 l 14.654,-34.066 c 2.731,0.833 5.449,1.754 8.146,2.783 0.129,0.049 0.263,0.075 0.393,0.117 0.228,0.074 0.454,0.152 0.689,0.205 0.176,0.04 0.353,0.056 0.531,0.084 0.206,0.032 0.41,0.07 0.618,0.086 0.189,0.014 0.377,0.005 0.567,0.005 0.198,0 0.395,0.009 0.594,-0.005 0.199,-0.015 0.393,-0.053 0.59,-0.082 0.187,-0.028 0.373,-0.046 0.559,-0.088 0.224,-0.05 0.44,-0.126 0.658,-0.197 0.14,-0.044 0.282,-0.073 0.419,-0.125 2.698,-1.029 5.415,-1.95 8.146,-2.783 z"
         id="path239" />
      <g
         id="g241" />
      <g
         id="g243" />
      <g
         id="g245" />
      <g
         id="g247" />
      <g
         id="g249" />
      <g
         id="g251" />
      <g
         id="g253" />
      <g
         id="g255" />
      <g
         id="g257" />
      <g
         id="g259" />
      <g
         id="g261" />
      <g
         id="g263" />
      <g
         id="g265" />
      <g
         id="g267" />
      <g
         id="g269" />
    </g>
  </g>
</svg>
